<?xml version="1.0" encoding="UTF-8"?>
<svg version="1.1" xmlns="http://www.w3.org/2000/svg" width="150" height="150">
<path d="M0 0 C49.5 0 99 0 150 0 C150 49.5 150 99 150 150 C100.5 150 51 150 0 150 C0 100.5 0 51 0 0 Z " fill="#E4E5E5" transform="translate(0,0)"/>
<path d="M0 0 C3.57911238 1.44541077 6.5913948 2.9223378 9 6 C9 6.66 9 7.32 9 8 C10.8253125 7.87625 10.8253125 7.87625 12.6875 7.75 C15.78919353 7.7719201 16.98504753 7.99202535 19.8125 9.5 C22.25892839 12.29591816 22.99435282 14.56195065 24.11328125 18.03515625 C25.60603994 21.34289908 28.11900359 22.87056787 31 25 C32.36009722 27.72019444 31.95068167 29.78370716 31.8125 32.8125 C31.7409134 37.74687952 31.7409134 37.74687952 33.9375 42.125 C34.618125 42.74375 35.29875 43.3625 36 44 C37.53597454 47.07194908 37.2265038 49.60244293 37 53 C35.70703876 56.42634728 34.93741749 58.41076615 31.8125 60.375 C31.214375 60.58125 30.61625 60.7875 30 61 C30.66 61.99 31.32 62.98 32 64 C32.61043233 68.23338782 32.45876307 71.94484493 30.75 75.875 C28.93228545 78.08222481 27.49984168 79.60302965 25 81 C22.25 81.1875 22.25 81.1875 20 81 C19.7525 82.093125 19.505 83.18625 19.25 84.3125 C18 88 18 88 16.375 89.875 C12.03870059 91.92903656 7.61154374 92.53718125 3 91 C2.71125 91.639375 2.4225 92.27875 2.125 92.9375 C1 95 1 95 -1 96 C-4.05920574 96.42071592 -6.9467746 96.48514117 -10 96 C-12.75569447 93.81840855 -14.43588747 92.12822506 -16 89 C-16.11362929 86.52986767 -16.16780035 84.08725616 -16.17700195 81.61621094 C-16.18357315 80.85502457 -16.19014435 80.0938382 -16.19691467 79.30958557 C-16.216663 76.78451442 -16.22831456 74.25950282 -16.23828125 71.734375 C-16.24235678 70.87212563 -16.2464323 70.00987625 -16.25063133 69.12149811 C-16.27150012 64.55642434 -16.28579747 59.9913807 -16.29516602 55.42626953 C-16.30622314 50.71400852 -16.34061246 46.00222068 -16.38033772 41.2901268 C-16.40650417 37.66466402 -16.41485794 34.03931386 -16.41844749 30.41376495 C-16.42331458 28.67705342 -16.43493208 26.94034697 -16.45348549 25.20372772 C-16.47787482 22.76922846 -16.47691257 20.33595162 -16.4699707 17.90136719 C-16.48278076 17.18737259 -16.49559082 16.47337799 -16.50878906 15.73774719 C-16.44378587 9.46496261 -13.94403111 5.99657249 -9.6875 1.625 C-6.15557626 -0.51058179 -4.07292997 -0.50018438 0 0 Z " fill="#DEDFDF" transform="translate(91,27)"/>
<path d="M0 0 C0 6.6 0 13.2 0 20 C-1.98 20.37125 -3.96 20.7425 -6 21.125 C-14.58639437 23.12226999 -20.24110268 26.87174152 -25.03515625 34.296875 C-28.86425118 41.05592516 -29.02340284 48.43452025 -27.34765625 55.91015625 C-25.29788142 62.30580561 -22.57373519 67.12169757 -17 71 C-11.53802843 73.79245492 -5.89986611 75.31432397 0 77 C0 83.27 0 89.54 0 96 C-3.96 96 -7.92 96 -12 96 C-12 92.37 -12 88.74 -12 85 C-14.83151973 84.58190799 -14.83151973 84.58190799 -18 85 C-20.40406384 87.37842577 -20.40406384 87.37842577 -22 90 C-26.40114397 89.49701212 -28.71195019 87.91227269 -32 85 C-31.855625 84.29875 -31.71125 83.5975 -31.5625 82.875 C-30.98521625 79.92443859 -30.48304859 76.96729849 -30 74 C-33.69441875 72.76852708 -34.51984786 73.55701009 -38 75 C-39.32 75 -40.64 75 -42 75 C-42.72767003 73.76115681 -43.43154815 72.50831659 -44.125 71.25 C-44.71667969 70.20585937 -44.71667969 70.20585937 -45.3203125 69.140625 C-46 67 -46 67 -45.28125 64.82421875 C-44 63 -44 63 -41.375 61.5625 C-40.59125 61.046875 -39.8075 60.53125 -39 60 C-38.58219121 57.37305578 -38.58219121 57.37305578 -39 55 C-40.093125 55.020625 -41.18625 55.04125 -42.3125 55.0625 C-46 55 -46 55 -49 54 C-49 50.04 -49 46.08 -49 42 C-44.545 41.505 -44.545 41.505 -40 41 C-39.49758678 38.6704053 -39.49758678 38.6704053 -40 36 C-42.90412546 33.64677204 -42.90412546 33.64677204 -46 32 C-45.46884894 27.48521602 -43.63379708 24.65333143 -41 21 C-37.7 21.66 -34.4 22.32 -31 23 C-29.91188703 18.80999121 -29.91188703 18.80999121 -31.4375 15.25 C-31.953125 14.1775 -32.46875 13.105 -33 12 C-30.36 10.02 -27.72 8.04 -25 6 C-21 8 -21 8 -19.625 9.625 C-17.19604762 11.6802674 -15.06626911 11.20441794 -12 11 C-12 7.7 -12 4.4 -12 1 C-9 0 -9 0 0 0 Z " fill="#070607" transform="translate(72,27)"/>
<path d="M0 0 C3.57911238 1.44541077 6.5913948 2.9223378 9 6 C9 6.66 9 7.32 9 8 C10.8253125 7.87625 10.8253125 7.87625 12.6875 7.75 C15.78919353 7.7719201 16.98504753 7.99202535 19.8125 9.5 C22.25892839 12.29591816 22.99435282 14.56195065 24.11328125 18.03515625 C25.60603994 21.34289908 28.11900359 22.87056787 31 25 C32.36009722 27.72019444 31.95068167 29.78370716 31.8125 32.8125 C31.7409134 37.74687952 31.7409134 37.74687952 33.9375 42.125 C34.618125 42.74375 35.29875 43.3625 36 44 C37.53597454 47.07194908 37.2265038 49.60244293 37 53 C35.70703876 56.42634728 34.93741749 58.41076615 31.8125 60.375 C31.214375 60.58125 30.61625 60.7875 30 61 C30.66 61.99 31.32 62.98 32 64 C32.61043233 68.23338782 32.45876307 71.94484493 30.75 75.875 C28.93228545 78.08222481 27.49984168 79.60302965 25 81 C22.25 81.1875 22.25 81.1875 20 81 C19.7525 82.093125 19.505 83.18625 19.25 84.3125 C18 88 18 88 16.375 89.875 C12.03870059 91.92903656 7.61154374 92.53718125 3 91 C2.71125 91.639375 2.4225 92.27875 2.125 92.9375 C1 95 1 95 -1 96 C-4.05920574 96.42071592 -6.9467746 96.48514117 -10 96 C-12.75569447 93.81840855 -14.43588747 92.12822506 -16 89 C-16.11362929 86.52986767 -16.16780035 84.08725616 -16.17700195 81.61621094 C-16.18357315 80.85502457 -16.19014435 80.0938382 -16.19691467 79.30958557 C-16.216663 76.78451442 -16.22831456 74.25950282 -16.23828125 71.734375 C-16.24235678 70.87212563 -16.2464323 70.00987625 -16.25063133 69.12149811 C-16.27150012 64.55642434 -16.28579747 59.9913807 -16.29516602 55.42626953 C-16.30622314 50.71400852 -16.34061246 46.00222068 -16.38033772 41.2901268 C-16.40650417 37.66466402 -16.41485794 34.03931386 -16.41844749 30.41376495 C-16.42331458 28.67705342 -16.43493208 26.94034697 -16.45348549 25.20372772 C-16.47787482 22.76922846 -16.47691257 20.33595162 -16.4699707 17.90136719 C-16.48278076 17.18737259 -16.49559082 16.47337799 -16.50878906 15.73774719 C-16.44378587 9.46496261 -13.94403111 5.99657249 -9.6875 1.625 C-6.15557626 -0.51058179 -4.07292997 -0.50018438 0 0 Z M-11 8 C-11.87943404 10.63460948 -11.87943404 10.63460948 -12 13 C-8.7 13 -5.4 13 -2 13 C-1.34 14.32 -0.68 15.64 0 17 C-0.721875 16.649375 -1.44375 16.29875 -2.1875 15.9375 C-5.35366266 14.88211245 -6.85917285 14.98135336 -10 16 C-12.17990127 17.765535 -12.17990127 17.765535 -12.22705078 19.97119141 C-12.21657715 20.75671387 -12.20610352 21.54223633 -12.1953125 22.3515625 C-12.18886719 23.20234375 -12.18242188 24.053125 -12.17578125 24.9296875 C-12.15902344 25.81914063 -12.14226562 26.70859375 -12.125 27.625 C-12.11597656 28.5221875 -12.10695313 29.419375 -12.09765625 30.34375 C-12.0740497 32.56276586 -12.0411231 34.78125077 -12 37 C-11.27039063 36.49984375 -10.54078125 35.9996875 -9.7890625 35.484375 C-6.78087707 33.88337995 -5.66124779 33.73052441 -2.375 34.25 C-1.61960937 34.35828125 -0.86421875 34.4665625 -0.0859375 34.578125 C2 35 2 35 5 36 C5.33 37.98 5.66 39.96 6 42 C4.989375 41.154375 3.97875 40.30875 2.9375 39.4375 C-0.01453664 37.34000028 -0.88890315 37.00376599 -4.6875 36.875 C-8.72974799 38.24783894 -9.99675242 39.23389455 -12 43 C-12.69623517 46.91632286 -12.32834551 50.07652826 -11 53.8125 C-8.84403573 56.17058592 -7.89603382 56.47831189 -4.9375 57.375 C-2.80078125 58.046875 -2.80078125 58.046875 -1 59 C0.375 62.625 0.375 62.625 1 66 C4.0832635 67.54163175 6.60878099 67.29747535 10 67 C11.84315671 65.0995533 11.84315671 65.0995533 13 63 C13.66 63 14.32 63 15 63 C13.75023244 66.65316671 13.32901247 67.78065836 10 70 C3.14803625 70.54380665 3.14803625 70.54380665 -0.375 68.875 C-2 67 -2 67 -2.75 64 C-3.65143631 60.9220406 -3.65143631 60.9220406 -5.87207031 60.05078125 C-6.60006836 59.80714844 -7.32806641 59.56351563 -8.078125 59.3125 C-9.17495605 58.93544922 -9.17495605 58.93544922 -10.29394531 58.55078125 C-10.85694336 58.36902344 -11.41994141 58.18726563 -12 58 C-12.09905303 62.34157052 -12.17155301 66.68253854 -12.21972656 71.02490234 C-12.23981301 72.5012559 -12.26708801 73.97753019 -12.30175781 75.45361328 C-12.35041184 77.57864962 -12.37299673 79.70263234 -12.390625 81.828125 C-12.41157227 83.1059082 -12.43251953 84.38369141 -12.45410156 85.70019531 C-12.26887315 89.06489862 -12.26887315 89.06489862 -10.13574219 91.42480469 C-8.09026575 93.19215636 -8.09026575 93.19215636 -5.4375 93.375 C-2.74805981 93.13662319 -2.74805981 93.13662319 0 91 C-0.18464366 86.65815798 -0.18464366 86.65815798 -2 83 C-3.66617115 82.95936168 -5.33388095 82.957279 -7 83 C-7 81.68 -7 80.36 -7 79 C-5.3603125 79.0928125 -5.3603125 79.0928125 -3.6875 79.1875 C-0.09855373 79.37143655 -0.09855373 79.37143655 1.75 77.5625 C2.1625 77.046875 2.575 76.53125 3 76 C4.485 75.505 4.485 75.505 6 75 C4.80100302 78.0831351 3.52299523 81.06279492 2 84 C3.08743288 86.11922127 3.08743288 86.11922127 5 88 C8.74923579 88.65204101 10.52789125 88.25658084 13.875 86.4375 C16.31946281 84.09167107 16.31946281 84.09167107 16.4375 80.5 C16.05282802 77.42262412 15.64756442 75.5743194 14 73 C17.875 74.75 17.875 74.75 19 77 C24.10879182 76.79960822 24.10879182 76.79960822 28 73.8125 C29.22917707 70.3554395 29.0631832 68.49331624 28 65 C26.81104764 63.05967596 26.81104764 63.05967596 25 62 C23.68 62 22.36 62 21 62 C21 60.68 21 59.36 21 58 C22.2375 58.0825 23.475 58.165 24.75 58.25 C27.76252076 58.2286346 28.84348817 58.0939071 31.5 56.5 C33.59530585 53.00782358 33.8735555 49.90394274 33 46 C31.16666667 42.83333333 31.16666667 42.83333333 28 41 C25.19269313 40.60043876 22.85846006 40.75775762 20 41 C22.40436026 37.39345961 23.94679607 37.14547068 28 36 C28.55762977 30.11435466 28.55762977 30.11435466 25.9375 25 C22.35342568 22.55977918 20.25018379 22.58331531 16 23 C16 22.34 16 21.68 16 21 C17.32 20.67 18.64 20.34 20 20 C19.64005447 17.3364031 19.28838998 15.41816548 17.75 13.1875 C15.42872502 11.61234912 13.75017605 11.91461872 11 12 C10.76216797 13.01320313 10.76216797 13.01320313 10.51953125 14.046875 C8.61928474 21.31190584 8.61928474 21.31190584 5.75 24.5 C2.50319784 26.27098299 -0.40421242 27.15393233 -4 28 C-4 26.68 -4 25.36 -4 24 C-2.906875 23.896875 -1.81375 23.79375 -0.6875 23.6875 C3.4307436 22.92515201 3.4307436 22.92515201 6 20 C7.2420849 15.80206748 7.45650316 12.12924465 5.8125 8.0625 C3.04654768 4.91503702 1.20500991 4.15383105 -2.9375 3.625 C-6.80786747 4.09892255 -8.33642446 5.18422014 -11 8 Z " fill="#101010" transform="translate(91,27)"/>
<path d="M0 0 C0 2.64 0 5.28 0 8 C-0.99580078 8.32871094 -0.99580078 8.32871094 -2.01171875 8.6640625 C-8.78735261 11.09735583 -12.69775318 13.39550635 -16 20 C-16.76250806 26.83757228 -16.16994994 31.47763387 -12 37 C-8.35712765 39.85522428 -4.45154786 40.86529172 0 42 C0 44.64 0 47.28 0 50 C-6.36335928 50.45452566 -10.74396479 49.75280914 -16 46 C-22.42874442 40.07269765 -26.05867374 34.04797345 -26.5 25.1875 C-26.29471076 18.05593035 -24.10938778 12.49344518 -19.35546875 7.15234375 C-13.62632002 1.88876919 -7.85159235 -0.48070974 0 0 Z " fill="#0A0A0A" transform="translate(72,50)"/>
<path d="M0 0 C2.4375 1 2.4375 1 4 2 C4 2.66 4 3.32 4 4 C4.825 3.34 5.65 2.68 6.5 2 C10.41111392 -0.61979602 13.3749914 -0.45491888 18 0 C18.99 0.66 19.98 1.32 21 2 C20.67 2.99 20.34 3.98 20 5 C16.7 5 13.4 5 10 5 C8.68 7.64 7.36 10.28 6 13 C5.01 12.67 4.02 12.34 3 12 C1.875 9 1.875 9 1 6 C-0.00836062 4.76732652 -0.00836062 4.76732652 -2.06640625 4.90234375 C-3.30197266 4.91974609 -3.30197266 4.91974609 -4.5625 4.9375 C-5.80193359 4.95103516 -5.80193359 4.95103516 -7.06640625 4.96484375 C-8.02353516 4.98224609 -8.02353516 4.98224609 -9 5 C-9 3.68 -9 2.36 -9 1 C-5.97562661 -0.5121867 -3.33758466 -0.17263369 0 0 Z " fill="#141414" transform="translate(96,73)"/>
<path d="M0 0 C0.99 0.33 1.98 0.66 3 1 C3.33 2.65 3.66 4.3 4 6 C4.99 6.33 5.98 6.66 7 7 C7 7.99 7 8.98 7 10 C5.35 10 3.7 10 2 10 C1.67 10.66 1.34 11.32 1 12 C-0.32 12 -1.64 12 -3 12 C-2 8 -1 4 0 0 Z " fill="#111111" transform="translate(104,52)"/>
<path d="M0 0 C0.66 0.33 1.32 0.66 2 1 C-1.41016016 4.71105664 -4.45515639 6.8726264 -9 9 C-10.35863401 9.96534522 -11.70343137 10.95277149 -13 12 C-11.64891639 8.90989789 -10.20982067 7.03089847 -7.625 4.875 C-7.03976563 4.37742187 -6.45453125 3.87984375 -5.8515625 3.3671875 C-3.95143888 1.96414264 -2.19508738 0.8762283 0 0 Z " fill="#CBCBCB" transform="translate(61,48)"/>
<path d="M0 0 C0.66 0.33 1.32 0.66 2 1 C1.59007812 1.51949219 1.18015625 2.03898437 0.7578125 2.57421875 C-2.07636576 6.2423777 -4.59828033 9.51449706 -6 14 C-6.99 14 -7.98 14 -9 14 C-8.62367503 8.60600878 -7.00757621 6.53048381 -3 3 C-2.401875 2.401875 -1.80375 1.80375 -1.1875 1.1875 C-0.795625 0.795625 -0.40375 0.40375 0 0 Z " fill="#D7D7D7" transform="translate(53,55)"/>
<path d="M0 0 C0.33 0 0.66 0 1 0 C1 2.31 1 4.62 1 7 C-1.31 7 -3.62 7 -6 7 C-5.02433888 5.83040013 -4.044375 4.66438823 -3.0625 3.5 C-2.51722656 2.8503125 -1.97195312 2.200625 -1.41015625 1.53125 C-0.71212891 0.77328125 -0.71212891 0.77328125 0 0 Z " fill="#000000" transform="translate(149,143)"/>
<path d="M0 0 C1.16959987 0.97566112 2.33561177 1.955625 3.5 2.9375 C4.1496875 3.48277344 4.799375 4.02804688 5.46875 4.58984375 C5.9740625 5.05519531 6.479375 5.52054688 7 6 C7 6.33 7 6.66 7 7 C4.69 7 2.38 7 0 7 C0 4.69 0 2.38 0 0 Z " fill="#000000" transform="translate(0,143)"/>
<path d="M0 0 C2.31 0 4.62 0 7 0 C7 2.31 7 4.62 7 7 C5.83040013 6.02433888 4.66438823 5.044375 3.5 4.0625 C2.8503125 3.51722656 2.200625 2.97195312 1.53125 2.41015625 C1.0259375 1.94480469 0.520625 1.47945313 0 1 C0 0.67 0 0.34 0 0 Z " fill="#000000" transform="translate(143,0)"/>
<path d="M0 0 C2.31 0 4.62 0 7 0 C6.02433888 1.16959987 5.044375 2.33561177 4.0625 3.5 C3.51722656 4.1496875 2.97195312 4.799375 2.41015625 5.46875 C1.94480469 5.9740625 1.47945313 6.479375 1 7 C0.67 7 0.34 7 0 7 C0 4.69 0 2.38 0 0 Z " fill="#000000" transform="translate(0,0)"/>
</svg>
